Coordinates
version=1
nRows=6
nColumns=40
inDegrees=yes

Units are S.I. units (second, meters, Newtons, ...)
If the header above contains a line with 'inDegrees', this indicates whether rotational values are in degrees (yes) or radians (no).

endheader
time	pelvis_tilt	pelvis_list	pelvis_rotation	pelvis_tx	pelvis_ty	pelvis_tz	hip_flexion_r	hip_adduction_r	hip_rotation_r	knee_angle_r	knee_angle_r_beta	ankle_angle_r	subtalar_angle_r	mtp_angle_r	hip_flexion_l	hip_adduction_l	hip_rotation_l	knee_angle_l	knee_angle_l_beta	ankle_angle_l	subtalar_angle_l	mtp_angle_l	lumbar_extension	lumbar_bending	lumbar_rotation	arm_flex_r	arm_add_r	arm_rot_r	elbow_flex_r	pro_sup_r	wrist_flex_r	wrist_dev_r	arm_flex_l	arm_add_l	arm_rot_l	elbow_flex_l	pro_sup_l	wrist_flex_l	wrist_dev_l
      8.19999999999999928946	      9.30720184968504327117	     -1.50924310070581091381	   -167.46480019604894096119	      0.30437872472403171287	      0.85096754663973783739	     -0.61057760944520522717	     42.58499437624962524751	    -20.54641280775584277762	    -14.46740005873216894372	     43.82255810496129555531	      0.76484792557810143965	      8.86313423339211325924	      0.00000000000000000000	      0.00000000000000000000	     45.44461336910145377033	     -1.88099185054711059983	     -0.07304185398698583020	     40.81864957770805091286	      0.71241983134879849349	      5.10404617806250460177	      0.00000000000000000000	      0.00000000000000000000	    -50.72771199514135531672	      8.65184783965956683005	    -10.31821513752096564076	      0.00000000000000000000	    -12.58121087615349686928	      0.00000000000000000000	     73.94582614222454708397	     45.03489077204454105186	      0.00000000000000000000	      0.00000000000000000000	      0.00000000000000000000	    -12.58121087615349686928	      0.00000000000000000000	     73.94582614222454708397	     45.03489077204454105186	      0.00000000000000000000	      0.00000000000000000000
      8.20500000000000007105	      9.22088489530011123918	     -1.48168728578689679054	   -167.52298615166637318907	      0.30400170136493309681	      0.85281915911278660669	     -0.61078837496986460032	     42.13171586724797634815	    -20.44106379374207094202	    -14.80320030999457614485	     43.25188036010315784097	      0.75488771996247072682	      8.56732164447371680183	      0.00000000000000000000	      0.00000000000000000000	     45.01317592562840275150	     -1.98234876256257930294	     -0.19713760702516452961	     40.25102754415720340830	      0.70251295795647050735	      4.85002542370150457884	      0.00000000000000000000	      0.00000000000000000000	    -50.69507334937130593744	      8.59784902745287205050	    -10.26664398558986590615	      0.00000000000000000000	    -12.59402136006344896657	      0.00000000000000000000	     73.95633508072552331214	     45.03403810047959865415	      0.00000000000000000000	      0.00000000000000000000	      0.00000000000000000000	    -12.59402136006344896657	      0.00000000000000000000	     73.95633508072552331214	     45.03403810047959865415	      0.00000000000000000000	      0.00000000000000000000
      8.21000000000000085265	      9.37299718609123466706	     -1.37618549629421216274	   -167.61056109739533326319	      0.30371709046709899349	      0.85400057914465421494	     -0.61104194011925294650	     42.02008090801184891916	    -20.26238717051569793171	    -14.98799984023776232789	     42.75127965009464503510	      0.74615058933500089111	      8.28226399157676418383	      0.00000000000000000000	      0.00000000000000000000	     44.94980524108423480811	     -2.12384287908818381041	     -0.29125622576466342339	     39.83944977309585766534	      0.69532957072343060112	      4.57966227328981734246	      0.00000000000000000000	      0.00000000000000000000	    -50.36653788955814547990	      8.53939656704527649822	    -10.22202355120645478337	      0.00000000000000000000	    -12.60204916752848625094	      0.00000000000000000000	     73.96273867755404296531	     45.03356604752563896454	      0.00000000000000000000	      0.00000000000000000000	      0.00000000000000000000	    -12.60204916752848625094	      0.00000000000000000000	     73.96273867755404296531	     45.03356604752563896454	      0.00000000000000000000	      0.00000000000000000000
      8.21499999999999985789	      9.27459268098750655440	     -1.36030840490905502449	   -167.67436561371437164780	      0.30336563976096292405	      0.85582828370931984807	     -0.61129048483186243512	     41.56220551771616555925	    -20.15088242883510361025	    -15.29766408894917795180	     42.17103435795466737090	      0.73602339851796194647	      7.94542633428405142837	      0.00000000000000000000	      0.00000000000000000000	     44.48310032300847183251	     -2.21386564365190441350	     -0.39855984100203517562	     39.22748423129501560425	      0.68464875711025485749	      4.33708134137048340051	      0.00000000000000000000	      0.00000000000000000000	    -50.34498177931349260916	      8.46499485379452210054	    -10.09338322153153200134	      0.00000000000000000000	    -12.61440808909545552297	      0.00000000000000000000	     73.97279208928814853152	     45.03277070389635383663	      0.00000000000000000000	      0.00000000000000000000	      0.00000000000000000000	    -12.61440808909545552297	      0.00000000000000000000	     73.97279208928814853152	     45.03277070389635383663	      0.00000000000000000000	      0.00000000000000000000
      8.22000000000000063949	      9.43938815868533609432	     -1.26450067410210964525	   -167.76494180249474652555	      0.30302935847720141593	      0.85657881741441432855	     -0.61157092259362400011	     41.56581089008109586302	    -20.04440538331877519340	    -15.54634048298581383563	     41.88688727542847090035	      0.73106409636794378315	      7.79560541970215581387	      0.00000000000000000000	      0.00000000000000000000	     44.54596952705613688295	     -2.36436258197390936076	     -0.52063988680327910608	     39.05168892086548737552	      0.68158055013369411856	      4.20598405189773849600	      0.00000000000000000000	      0.00000000000000000000	    -49.96256221493329263694	      8.34045143826397605835	    -10.05137689722356597599	      0.00000000000000000000	    -12.62138140984279210954	      0.00000000000000000000	     73.97825609903581778326	     45.03239140162742160101	      0.00000000000000000000	      0.00000000000000000000	      0.00000000000000000000	    -12.62138140984279210954	      0.00000000000000000000	     73.97825609903581778326	     45.03239140162742160101	      0.00000000000000000000	      0.00000000000000000000
      8.22499999999999964473	      9.56296987803417408713	     -1.13274880998344706917	   -167.91221313458794384132	      0.30284021049903930844	      0.85803915246926776295	     -0.61191200235821463504	     41.38006787420733445515	    -19.74708283292065758019	    -15.63793707147461198304	     41.22025548175520981431	      0.71942917666986982983	      7.32989516103435079231	      0.00000000000000000000	      0.00000000000000000000	     44.33721101210309711860	     -2.52939752831533759547	     -0.50108550454423184117	     38.38138189906064923207	      0.66988148560396221232	      3.83515054359341744927	      0.00000000000000000000	      0.00000000000000000000	    -49.65137051817702484868	      8.29166512806430233695	     -9.94264677065703672554	      0.00000000000000000000	    -12.62928447254069475036	      0.00000000000000000000	     73.98452321988634139416	     45.03193600494169146486	      0.00000000000000000000	      0.00000000000000000000	      0.00000000000000000000	    -12.62928447254069475036	      0.00000000000000000000	     73.98452321988634139416	     45.03193600494169146486	      0.00000000000000000000	      0.00000000000000000000
